<?xml version="1.0" encoding="UTF-8"?>
<!DOCTYPE svg PUBLIC "-//W3C//DTD SVG 1.1//EN" "http://www.w3.org/Graphics/SVG/1.1/DTD/svg11.dtd">
<!-- Creator: CorelDRAW 2021 (64-Bit Evaluation Version) -->
<svg xmlns="http://www.w3.org/2000/svg" xml:space="preserve" width="158.587mm" height="61.2417mm" version="1.1" style="shape-rendering:geometricPrecision; text-rendering:geometricPrecision; image-rendering:optimizeQuality; fill-rule:evenodd; clip-rule:evenodd"
viewBox="0 0 1966.14 759.27"
 xmlns:xlink="http://www.w3.org/1999/xlink"
 xmlns:xodm="http://www.corel.com/coreldraw/odm/2003">
 <defs>
  <style type="text/css">
   <![CDATA[
    .fil0 {fill:black;fill-rule:nonzero}
   ]]>
  </style>
 </defs>
 <g id="Layer_x0020_1">
  <metadata id="CorelCorpID_0Corel-Layer"/>
  <path class="fil0" d="M90.47 550.26c4.6,0 6.73,2.13 6.4,6.4 -0.33,4.27 -2.46,6.73 -6.4,7.39 -24.95,-1.31 -45.96,-11.49 -63.03,-30.53 -17.07,-19.04 -25.6,-42.02 -25.6,-68.93 0,-42.67 24.78,-84.86 74.35,-126.55 49.57,-41.69 118.99,-79.11 208.28,-112.26 89.29,-33.15 195.8,-60.07 319.56,-80.75 123.75,-20.68 259.82,-31.02 408.19,-31.02 5.25,0 7.71,2.3 7.39,6.89 -0.33,4.6 -2.79,6.89 -7.39,6.89 -146.4,0 -280.66,9.85 -402.77,29.54 -122.11,19.7 -227.16,45.46 -315.13,77.3 -87.97,31.84 -156.42,67.79 -205.33,107.83 -48.91,40.05 -73.37,80.75 -73.37,122.11 0,22.98 7.22,42.84 21.67,59.58 14.44,16.74 32.17,25.44 53.18,26.1zm-56.6 -454.31c12.65,0 25.44,-5.54 31.5,-16.74l-6.98 -3.3c-4.88,8.17 -14.76,12.13 -24.51,12.13 -12.78,0 -25.96,-6.46 -25.96,-19.77l0 -40.59c0,-13.31 13.18,-19.77 25.96,-19.77 9.75,0 19.77,4.35 24.51,12.52l6.98 -3.95c-5.93,-11.07 -18.58,-16.47 -31.1,-16.47 -17.13,0 -34.27,8.96 -34.27,27.68l0 40.59c0,18.45 17.13,27.68 33.87,27.68zm106.22 -1.32l8.3 0 -34.27 -93.31 -9.36 0 -34.14 93.31 8.44 0 10.81 -29.78 39.14 0 11.07 29.78zm-33.74 -75.91l2.77 -9.49 0.53 0 2.77 9.36 13.71 38.22 -33.48 0 13.71 -38.09zm80.4 77.23c17.26,0 32.82,-8.96 32.82,-26.36 0,-16.87 -14.63,-23.33 -31.76,-26.62 -12.52,-2.5 -24.38,-6.72 -24.38,-17.53 0,-11.86 10.81,-17.53 23.46,-17.53 9.75,0 19.11,3.29 23.59,11.86l7.25 -3.16c-6.06,-11.99 -18.06,-16.61 -30.84,-16.61 -16.34,0 -31.24,8.96 -31.24,25.17 0,15.95 14.1,22.01 30.44,25.3 12.92,2.77 25.3,6.59 25.3,18.98 0,11.73 -11.2,18.58 -24.38,18.58 -10.02,0 -20.03,-4.48 -25.3,-13.31l-7.25 3.3c6.85,12.26 19.77,17.92 32.29,17.92zm110.31 -1.32l8.3 0 -34.27 -93.31 -9.36 0 -34.14 93.31 8.44 0 10.81 -29.78 39.14 0 11.07 29.78zm-33.74 -75.91l2.77 -9.49 0.53 0 2.77 9.36 13.71 38.22 -33.48 0 13.71 -38.09zm80.92 75.91l32.29 0c17,0 31.89,-7.78 31.89,-26.49l0 -40.06c0,-18.71 -14.89,-26.75 -31.89,-26.75l-32.29 0 0 93.31zm7.91 -7.91l0 -77.49 24.38 0c13.05,0 23.99,5.4 23.99,18.85l0 40.06c0,13.31 -10.94,18.58 -23.99,18.58l-24.38 0zm76.31 7.91l7.91 0 0 -93.31 -7.91 0 0 93.31zm1014.89 626.55c5.81,-2.95 8.66,-7.88 8.66,-14.77 0,-11.71 -8.56,-17.82 -19.29,-17.82l-26.18 0 0 69.69 26.09 0c12.8,0 22.54,-4.72 22.64,-19.79 0,-8.56 -4.04,-14.86 -11.91,-17.32zm-10.63 -26.97c7.48,0 13.49,4.04 13.49,12.11 0,8.66 -5.71,12.4 -13.49,12.4l-20.28 0 0 -24.51 20.28 0zm0 58.37l-20.28 0 0 -28.45 20.28 0c10.14,-0.1 16.64,4.04 16.64,14.47 0,10.43 -6.99,14.17 -16.64,13.98zm49.02 5.71l5.91 0 0 -27.46 24.51 -42.23 -6.99 0 -20.48 36.32 -20.08 -36.32 -6.89 0 24.02 42.23 0 27.46zm78.65 0.98c12.9,0 24.51,-6.69 24.51,-19.69 0,-12.6 -10.93,-17.42 -23.72,-19.88 -9.35,-1.87 -18.21,-5.02 -18.21,-13.09 0,-8.86 8.07,-13.09 17.52,-13.09 7.28,0 14.27,2.46 17.62,8.86l5.41 -2.36c-4.53,-8.96 -13.49,-12.4 -23.03,-12.4 -12.21,0 -23.33,6.69 -23.33,18.8 0,11.91 10.53,16.44 22.74,18.9 9.65,2.07 18.9,4.92 18.9,14.17 0,8.76 -8.37,13.88 -18.21,13.88 -7.48,0 -14.96,-3.35 -18.9,-9.94l-5.41 2.46c5.12,9.15 14.77,13.39 24.12,13.39zm61.91 0c12.7,0 25.49,-7.09 25.49,-21.16l0 -49.51 -5.91 0 0 49.51c0,10.24 -9.84,15.26 -19.59,15.26 -9.74,0 -19.39,-5.02 -19.39,-15.26l0 -49.51 -6 0 0 49.51c0,14.08 12.7,21.16 25.4,21.16zm41.34 -0.98l39.57 0 0 -5.91 -33.66 0 0 -63.78 -5.91 0 0 69.69zm85.73 0.39c8.76,0 14.77,-4.43 20.38,-11.52l7.28 8.07 7.28 0 -11.52 -12.99 6.3 -10.33 -4.72 -2.36 -5.41 8.76 -15.95 -17.32c9.74,-5.41 14.76,-9.84 14.76,-17.91 0,-8.27 -7.09,-13.98 -14.86,-13.98 -8.66,0 -16.54,5.51 -16.54,14.96 0,5.51 3.84,10.93 7.78,15.55 -7.58,4.53 -14.76,10.83 -14.76,20.28 0,11.62 8.86,18.8 19.98,18.8zm-0.1 -41.44c-3.15,-3.54 -7.19,-8.76 -7.19,-13.39 0,-5.71 4.82,-9.65 10.53,-9.65 5.61,0 9.55,3.74 9.55,9.15 0,6.6 -6.3,10.53 -12.9,13.88zm0.89 36.32c-9.25,0 -15.26,-5.41 -15.26,-13.88 0,-7.48 6.69,-12.8 12.7,-16.34l18.41 20.08c-3.64,5.12 -9.15,10.14 -15.85,10.14zm66.93 4.72l5.91 0 0 -49.22 -0.79 -12.11 0.79 0 4.23 10.93 17.91 39.87 5.61 0 17.42 -39.18 4.53 -11.52 0.98 0 -0.89 12.8 0 48.43 5.91 0 0 -69.69 -8.07 0 -22.74 52.07 -22.74 -52.07 -8.07 0 0 69.69zm77.96 0l5.91 0 0 -69.69 -5.91 0 0 69.69zm63.49 0l7.09 0 -22.54 -29.53 0.1 0c13.39,0 22.34,-6 22.34,-20.28 -0.3,-14.57 -10.04,-19.88 -22.74,-19.88l-25.49 0 0 69.69 5.91 0 0 -29.53 12.9 0 22.44 29.53zm-35.34 -63.88l19.69 0c9.74,-0.1 16.83,3.45 16.83,14.17 0,10.63 -6.01,15.06 -16.83,15.06l-19.69 0 0 -29.24zm-189.09 -138.44c0.23,-0.69 2.16,-4.48 5.14,-9.85 -41.14,30.22 -122.99,81.89 -164.09,69.92 -19.18,-5.59 -32.21,-26.63 -36.91,-52.35 -34.27,42.42 -102.53,100.96 -116.57,-7.7 -50.46,29.42 -75.24,43.81 -139.33,55.61 -78.84,14.51 -108.55,2.01 -113.07,-16.83 -4.26,-17.74 13.82,-41.11 34.26,-52.86 14.42,-8.29 30.02,-10.79 39.77,-1.45 32.28,30.93 -48.01,44.07 -57.52,44.78 -1.88,0 -3.55,-0.87 -4.64,-2.22 -4.6,17.72 15.47,32.25 99,16.88 63.64,-11.71 88.35,-28.23 140.17,-58.46 -4.74,-101.73 102.11,-248.13 132.19,-239.61 20.78,5.89 4.52,69.73 -24.33,118.57 -35.96,60.89 -60.64,98.87 -95.03,129.67 4.9,38.96 17.55,55.07 29.42,56.29 20.8,2.14 52.17,-36.78 73.85,-59.11 -4.52,-102.18 98.89,-247.75 131.75,-245.42 21.55,1.53 7.82,64.59 -24.33,118.57 -36.18,60.75 -60.64,98.87 -95.03,129.67 0.47,12.29 11.54,46.3 29.98,52.5 24.04,8.08 60.31,-9.84 89.82,-24.05 34.64,-16.68 62.18,-36.58 78.96,-46.66 4.61,-7.56 9.91,-15.64 15.05,-22.29 7.86,-10.16 15.35,-16.97 19.49,-13.4 2,1.72 1.1,8.81 -4.22,16.06 -10.55,14.38 -26.58,32.58 -31.28,50.33 -2.55,9.64 -2.35,15.69 5.22,28.87 5.11,8.89 16.08,11.82 28.56,11.82 12.47,0 26.26,-1.31 41.36,-3.94 15.1,-2.63 30.36,-6.24 45.79,-10.83 15.43,-4.6 30.69,-10.01 45.79,-16.25 15.1,-6.24 28.89,-12.97 41.36,-20.19 3.94,-2.63 7.22,-2.13 9.85,1.48 2.62,3.61 1.97,7.06 -1.97,10.34 -13.13,7.88 -27.57,15.1 -43.33,21.66 -15.76,6.57 -31.68,12.15 -47.76,16.74 -16.08,4.6 -32.01,8.21 -47.76,10.83 -15.76,2.63 -30.2,3.94 -43.33,3.94 -18.38,0 -32.17,-5.42 -41.36,-16.25 -9.19,-10.83 -11.16,-25.88 -4.92,-44.81zm50.42 -90.53c-3.94,1.31 -6.57,-0.33 -7.88,-4.92 -1.31,-4.59 0,-7.55 3.94,-8.86l28.56 -6.89c5.25,-1.31 8.37,0.33 9.36,4.92 0.98,4.59 -0.82,7.55 -5.42,8.86l-28.56 6.89zm-352.29 67.73c31.03,-19.72 147.38,-204.09 112.85,-215.04 -15.27,-4.85 -53.58,45.49 -79.55,100.9 -25.76,54.96 -36.04,102.83 -33.3,114.15zm-359.99 -121.26c1.31,-3.94 4.27,-5.58 8.86,-4.92 4.59,0.66 6.24,3.61 4.92,8.86l-2.95 11.82c51.21,-10.5 102.58,-19.04 154.12,-25.6 51.54,-6.56 106.19,-10.83 163.96,-12.8 5.25,0 7.88,2.46 7.88,7.39 0,4.92 -2.63,7.06 -7.88,6.4 -58.43,2.63 -113.41,7.22 -164.95,13.79 -51.54,6.56 -103.89,15.1 -157.07,25.6 -1.31,9.19 -2.63,18.55 -3.94,28.07 -1.31,9.52 -1.97,18.88 -1.97,28.07 0,12.47 1.15,24.62 3.45,36.44 2.3,11.82 6.4,22.49 12.31,32.01 5.91,9.52 13.62,17.56 23.14,24.13 7.29,5.03 16.22,8.71 26.78,11.04 3.23,0.71 6.61,1.34 10.15,1.76 5.9,0.7 8.17,3.24 7.39,7.88 -1.73,10.21 -10.89,6.07 -20.02,4.24 -12.44,-2.49 -23.17,-6.7 -32.18,-12.61 -10.78,-7.09 -19.4,-15.62 -25.85,-25.6 -0.41,0.47 -0.9,0.93 -1.45,1.37 -17.07,10.5 -36.11,19.53 -57.12,27.08 -21.01,7.55 -40.38,11.33 -58.1,11.33 -13.13,0 -25.77,-2.13 -37.91,-6.4 -12.15,-4.27 -23.47,-11 -33.98,-20.19 -16.41,15.76 -31.35,24.62 -44.81,26.59 -13.46,1.97 -20.19,-3.61 -20.19,-16.74 0,-5.91 2.13,-12.31 6.4,-19.2 4.27,-6.89 9.68,-13.13 16.25,-18.71 6.56,-5.58 13.79,-10.34 21.67,-14.28 7.88,-3.94 15.1,-5.91 21.67,-5.91 10.5,0 17.23,3.61 20.19,10.83 2.95,7.22 4.1,13.46 3.45,18.71 -1.31,3.28 -3.94,4.76 -7.88,4.43 -3.94,-0.33 -5.91,-2.46 -5.91,-6.4 0.66,-2.63 0.33,-5.58 -0.98,-8.86 -1.31,-3.28 -4.27,-4.92 -8.86,-4.92 -5.25,0 -10.83,1.48 -16.74,4.43 -5.91,2.95 -11.49,6.73 -16.74,11.32 -5.25,4.6 -9.68,9.36 -13.29,14.28 -3.61,4.92 -5.42,9.68 -5.42,14.28 0,2.63 1.31,3.77 3.94,3.45 2.63,-0.33 6.07,-1.64 10.34,-3.94 4.27,-2.3 9.03,-5.25 14.28,-8.86 5.25,-3.61 10.5,-7.72 15.76,-12.31 3.94,-3.28 7.22,-4.6 9.85,-3.94 2.62,0.66 5.25,2.3 7.88,4.92 9.19,9.19 19.37,15.43 30.53,18.71 11.16,3.28 21.34,4.92 30.53,4.92 16.41,0 34.3,-3.61 53.67,-10.83 19.37,-7.22 38.81,-13.11 55.61,-22.28 0.94,-0.51 1.77,-0.99 2.5,-1.41 -4.65,-9.11 -8.03,-19.08 -10.14,-29.88 -2.62,-13.46 -3.94,-27.08 -3.94,-40.87 0,-17.07 1.64,-34.79 4.92,-53.18 -17.73,3.94 -35.62,7.88 -53.67,11.82 -18.05,3.94 -36.6,8.21 -55.64,12.8 -5.25,1.97 -8.53,0.33 -9.85,-4.92 -1.31,-5.25 0.66,-8.21 5.91,-8.86 20.35,-4.6 40.05,-9.03 59.09,-13.29 19.04,-4.27 38.08,-8.37 57.12,-12.31 1.31,-3.28 2.13,-6.4 2.46,-9.36 0.33,-2.95 1.15,-6.07 2.46,-9.36zm-808.48 115.7c-4.6,1.31 -7.55,0.16 -8.86,-3.45 -1.31,-3.61 -0.33,-6.4 2.95,-8.37 13.13,-7.22 30.36,-14.44 51.7,-21.66 21.34,-7.22 45.79,-14.44 73.37,-21.67 4.6,-35.45 10.83,-70.74 18.71,-105.86 7.88,-35.12 17.07,-66.15 27.57,-93.06 2.63,-4.6 5.91,-5.91 9.85,-3.94 3.94,1.97 5.25,5.25 3.94,9.85 -9.85,25.6 -18.71,55.31 -26.59,89.12 -7.88,33.81 -14.11,67.13 -18.71,99.96 27.57,-6.57 56.46,-12.64 86.66,-18.22 30.2,-5.58 60.56,-10.5 91.09,-14.77 30.53,-4.27 60.4,-7.71 89.61,-10.34 29.21,-2.63 56.3,-4.27 81.24,-4.92 4.59,0.66 6.56,3.12 5.91,7.39 -0.66,4.27 -2.63,6.4 -5.91,6.4 -24.95,0.66 -52.19,2.3 -81.74,4.92 -29.54,2.63 -59.74,6.07 -90.6,10.34 -30.86,4.27 -61.55,9.19 -92.08,14.77 -30.53,5.58 -59.25,11.65 -86.17,18.22 -1.31,14.44 -2.46,28.07 -3.45,40.87 -0.98,12.8 -1.48,24.78 -1.48,35.94 0,10.5 0.33,19.86 0.99,28.07 0.66,8.21 1.97,15.59 3.94,22.16 1.31,4.59 -0.33,7.39 -4.92,8.37 -4.59,0.99 -7.55,-0.49 -8.86,-4.43 -1.97,-6.56 -3.28,-14.44 -3.94,-23.64 -0.66,-9.19 -0.99,-19.37 -0.99,-30.53 0,-11.16 0.33,-22.81 0.99,-34.96 0.66,-12.14 1.64,-24.78 2.95,-37.91 -24.95,7.22 -47.6,14.12 -67.95,20.68 -20.35,6.57 -36.77,13.46 -49.24,20.68zm331.14 24.34c13.16,-1.73 21.54,1.54 26.52,7.46 45.03,-43.96 161.13,-40.74 201.27,-42.61 3.58,0 6.49,2.9 6.49,6.49 0,3.58 -2.9,6.49 -6.49,6.49 -26.97,1.26 -156.97,-1.4 -195.8,42.09 2.08,11.5 -1.01,25.56 -5.57,35.73 -3.81,8.5 -8.1,11.09 -11.8,10.42 -2.67,-0.49 -5.32,-1.13 -6.01,-9.73 -1.15,-14.24 1.84,-26.2 7.89,-36.27 -2.57,-5.04 -6.98,-8.27 -14.07,-7.32 -3.52,0.67 -6.91,-1.64 -7.58,-5.16 -0.67,-3.52 1.64,-6.91 5.16,-7.58zm953 -18.78c31.27,-21.65 148.79,-210.49 112.85,-215.04 -14.16,-1.79 -53.58,45.49 -79.55,100.9 -25.76,54.96 -36.04,102.83 -33.3,114.15zm-362.13 40.15c0,0 69.03,-10.47 48.96,-24.5 -10.87,-7.6 -37.6,7.75 -48.97,24.5l0 0z"/>
 </g>
</svg>
